<svg width="120" height="120" viewBox="0 0 120 120" fill="none" xmlns="http://www.w3.org/2000/svg">
<g clip-path="url(#clip0_61_70)">
<path d="M41.5386 85.9888C41.2122 81.9632 40.9402 77.3936 40.7226 72.28C40.6138 67.1664 40.5594 61.944 40.5594 56.6128C40.5594 51.1728 40.5594 45.8416 40.5594 40.6192C40.6682 35.3968 40.8314 30.664 41.049 26.4208C41.049 25.3328 41.5386 24.5168 42.5178 23.9728C43.6058 23.32 44.4762 23.048 45.129 23.1568C47.0874 23.3744 48.393 24.0816 49.0458 25.2784C49.8074 26.3664 50.297 27.944 50.5146 30.0112C50.4058 33.4928 50.297 36.9744 50.1882 40.456C50.1882 43.9376 50.2426 47.4192 50.3514 50.9008C55.2474 50.0304 59.3274 48.2352 62.5914 45.5152C65.9642 42.7952 68.3578 39.6944 69.7722 36.2128C70.3162 34.9072 70.697 33.3296 70.9146 31.48C71.241 29.6304 71.2954 27.7808 71.0778 25.9312C70.8602 23.9728 70.3162 22.1776 69.4458 20.5456C68.6842 18.8048 67.4874 17.4448 65.8554 16.4656C63.4618 15.0512 60.8506 14.2896 58.0218 14.1808C55.193 14.072 52.2554 14.5072 49.209 15.4864C46.2714 16.3568 43.3338 17.7712 40.3962 19.7296C37.5674 21.688 34.9018 24.0272 32.3994 26.7472C32.7258 28.3792 32.5082 29.848 31.7466 31.1536C30.985 32.3504 29.897 33.2208 28.4826 33.7648C27.6122 33.9824 26.5786 33.5472 25.3818 32.4592C24.185 31.2624 23.5866 30.0656 23.5866 28.8688C23.5866 24.5168 24.7834 20.7632 27.177 17.608C29.6794 14.344 32.7802 11.624 36.4794 9.448C40.1786 7.272 44.1498 5.63999 48.393 4.55199C52.6362 3.464 56.553 2.92 60.1434 2.92C65.4746 2.92 69.9354 4.4976 73.5258 7.65279C77.1162 10.6992 79.5642 14.5616 80.8698 19.24C83.1546 27.4 82.5562 34.744 79.0746 41.272C75.7018 47.8 70.153 53.4576 62.4282 58.2448C68.0858 61.7264 73.3626 65.0448 78.2586 68.2C83.2634 71.3552 88.2682 74.7824 93.273 78.4816C93.9258 79.1344 94.633 80.1136 95.3946 81.4192C96.265 82.616 96.1562 84.4656 95.0682 86.968C94.4154 88.4912 93.273 89.3616 91.641 89.5792C90.1178 89.688 88.5946 89.1984 87.0714 88.1104C84.6778 86.152 81.9578 84.1392 78.9114 82.072C75.9738 79.896 72.873 77.7744 69.609 75.7072C66.345 73.5312 63.081 71.464 59.817 69.5056C56.553 67.4384 53.4522 65.5344 50.5146 63.7936C50.6234 68.1456 50.6778 72.4976 50.6778 76.8496C50.7866 81.0928 50.9498 85.2816 51.1674 89.416C51.1674 90.9392 50.7322 92.0272 49.8618 92.68C48.9914 93.224 47.9034 93.496 46.5978 93.496C45.945 93.3872 45.3466 93.0608 44.8026 92.5168C44.2586 91.864 43.7146 91.1568 43.1706 90.3952C42.7354 89.5248 42.3546 88.7088 42.0282 87.9472C41.7018 87.0768 41.5386 86.424 41.5386 85.9888Z" fill="#FBF4E8"/>
<path d="M61.4211 27.4078L72.8164 32.9328L86.9742 43.6375C92.9423 48.1015 100.858 55.3144 103.549 66.0828L105.966 75.7516C107.152 80.5382 107.323 87.0136 104.067 93.3625C100.965 99.4084 96.1264 102.791 92.4992 104.585C86.0696 107.747 79.0281 108.037 74.7156 108.038H52.6156C46.6865 108.038 35.6606 106.898 27.9258 97.5063C19.8601 87.6603 21.309 76.129 22.9188 70.0539L25.5086 59.8672L28.2711 49.6805C29.4565 45.2246 32.877 34.6382 43.6375 29.307C50.1731 26.0931 56.3604 26.1264 61.4211 27.4078Z" fill="#D00C1C"/>
<path d="M41.5386 85.9888C41.2122 81.9632 40.9402 77.3936 40.7226 72.28C40.6138 67.1664 40.5594 61.944 40.5594 56.6128C40.5594 51.1728 40.5594 45.8416 40.5594 40.6192C40.6682 35.3968 40.8314 30.664 41.049 26.4208C41.049 25.3328 41.5386 24.5168 42.5178 23.9728C43.6058 23.32 44.4762 23.048 45.129 23.1568C47.0874 23.3744 48.393 24.0816 49.0458 25.2784C49.8074 26.3664 50.297 27.944 50.5146 30.0112C50.4058 33.4928 50.297 36.9744 50.1882 40.456C50.1882 43.9376 50.2426 47.4192 50.3514 50.9008C55.2474 50.0304 59.3274 48.2352 62.5914 45.5152C65.9642 42.7952 68.3578 39.6944 69.7722 36.2128C70.3162 34.9072 70.697 33.3296 70.9146 31.48C71.241 29.6304 71.2954 27.7808 71.0778 25.9312C70.8602 23.9728 70.3162 22.1776 69.4458 20.5456C68.6842 18.8048 67.4874 17.4448 65.8554 16.4656C63.4618 15.0512 60.8506 14.2896 58.0218 14.1808C55.193 14.072 52.2554 14.5072 49.209 15.4864C46.2714 16.3568 43.3338 17.7712 40.3962 19.7296C37.5674 21.688 34.9018 24.0272 32.3994 26.7472C32.7258 28.3792 32.5082 29.848 31.7466 31.1536C30.985 32.3504 29.897 33.2208 28.4826 33.7648C27.6122 33.9824 26.5786 33.5472 25.3818 32.4592C24.185 31.2624 23.5866 30.0656 23.5866 28.8688C23.5866 24.5168 24.7834 20.7632 27.177 17.608C29.6794 14.344 32.7802 11.624 36.4794 9.448C40.1786 7.272 44.1498 5.63999 48.393 4.55199C52.6362 3.464 56.553 2.92 60.1434 2.92C65.4746 2.92 69.9354 4.4976 73.5258 7.65279C77.1162 10.6992 79.5642 14.5616 80.8698 19.24C83.1546 27.4 82.5562 34.744 79.0746 41.272C75.7018 47.8 70.153 53.4576 62.4282 58.2448C68.0858 61.7264 73.3626 65.0448 78.2586 68.2C83.2634 71.3552 88.2682 74.7824 93.273 78.4816C93.9258 79.1344 94.633 80.1136 95.3946 81.4192C96.265 82.616 96.1562 84.4656 95.0682 86.968C94.4154 88.4912 93.273 89.3616 91.641 89.5792C90.1178 89.688 88.5946 89.1984 87.0714 88.1104C84.6778 86.152 81.9578 84.1392 78.9114 82.072C75.9738 79.896 72.873 77.7744 69.609 75.7072C66.345 73.5312 63.081 71.464 59.817 69.5056C56.553 67.4384 53.4522 65.5344 50.5146 63.7936C50.6234 68.1456 50.6778 72.4976 50.6778 76.8496C50.7866 81.0928 50.9498 85.2816 51.1674 89.416C51.1674 90.9392 50.7322 92.0272 49.8618 92.68C48.9914 93.224 47.9034 93.496 46.5978 93.496C45.945 93.3872 45.3466 93.0608 44.8026 92.5168C44.2586 91.864 43.7146 91.1568 43.1706 90.3952C42.7354 89.5248 42.3546 88.7088 42.0282 87.9472C41.7018 87.0768 41.5386 86.424 41.5386 85.9888Z" fill="#FBF4E8"/>
</g>
<defs>
<clipPath id="clip0_61_70">
<rect width="120" height="120" fill="white"/>
</clipPath>
</defs>
</svg>
