<svg width="294" height="120" viewBox="0 0 294 120" fill="none" xmlns="http://www.w3.org/2000/svg">
<path d="M11.6954 75.464C11.5034 73.096 11.3434 70.408 11.2154 67.4C11.1514 64.392 11.1194 61.32 11.1194 58.184C11.1194 54.984 11.1194 51.848 11.1194 48.776C11.1834 45.704 11.2794 42.92 11.4074 40.424C11.4074 39.784 11.6954 39.304 12.2714 38.984C12.9114 38.6 13.4234 38.44 13.8074 38.504C14.9594 38.632 15.7274 39.048 16.1114 39.752C16.5594 40.392 16.8474 41.32 16.9754 42.536C16.9114 44.584 16.8474 46.632 16.7834 48.68C16.7834 50.728 16.8154 52.776 16.8794 54.824C19.7594 54.312 22.1594 53.256 24.0794 51.656C26.0634 50.056 27.4714 48.232 28.3034 46.184C28.6234 45.416 28.8474 44.488 28.9754 43.4C29.1674 42.312 29.1994 41.224 29.0714 40.136C28.9434 38.984 28.6234 37.928 28.1114 36.968C27.6634 35.944 26.9594 35.144 25.9994 34.568C24.5914 33.736 23.0554 33.288 21.3914 33.224C19.7274 33.16 17.9994 33.416 16.2074 33.992C14.4794 34.504 12.7514 35.336 11.0234 36.488C9.35943 37.64 7.79143 39.016 6.31943 40.616C6.51143 41.576 6.38343 42.44 5.93543 43.208C5.48743 43.912 4.84743 44.424 4.01543 44.744C3.50343 44.872 2.89543 44.616 2.19143 43.976C1.48743 43.272 1.13543 42.568 1.13543 41.864C1.13543 39.304 1.83943 37.096 3.24743 35.24C4.71943 33.32 6.54343 31.72 8.71943 30.44C10.8954 29.16 13.2314 28.2 15.7274 27.56C18.2234 26.92 20.5274 26.6 22.6394 26.6C25.7754 26.6 28.3994 27.528 30.5114 29.384C32.6234 31.176 34.0634 33.448 34.8314 36.2C36.1754 41 35.8234 45.32 33.7754 49.16C31.7914 53 28.5274 56.328 23.9834 59.144C27.3114 61.192 30.4154 63.144 33.2954 65C36.2394 66.856 39.1834 68.872 42.1274 71.048C42.5114 71.432 42.9274 72.008 43.3754 72.776C43.8874 73.48 43.8234 74.568 43.1834 76.04C42.7994 76.936 42.1274 77.448 41.1674 77.576C40.2714 77.64 39.3754 77.352 38.4794 76.712C37.0714 75.56 35.4714 74.376 33.6794 73.16C31.9514 71.88 30.1274 70.632 28.2074 69.416C26.2874 68.136 24.3674 66.92 22.4474 65.768C20.5274 64.552 18.7034 63.432 16.9754 62.408C17.0394 64.968 17.0714 67.528 17.0714 70.088C17.1354 72.584 17.2314 75.048 17.3594 77.48C17.3594 78.376 17.1034 79.016 16.5914 79.4C16.0794 79.72 15.4394 79.88 14.6714 79.88C14.2874 79.816 13.9354 79.624 13.6154 79.304C13.2954 78.92 12.9754 78.504 12.6554 78.056C12.3994 77.544 12.1754 77.064 11.9834 76.616C11.7914 76.104 11.6954 75.72 11.6954 75.464ZM81.7987 56.744C81.4147 58.536 80.7107 60.264 79.6867 61.928C78.7267 63.528 77.6067 65.032 76.3267 66.44C75.0467 67.848 73.6387 69.064 72.1027 70.088C70.6307 71.112 69.1267 71.912 67.5907 72.488C64.7747 73.512 61.9587 73.864 59.1427 73.544C56.3907 73.16 53.9267 71.88 51.7507 69.704C50.2787 67.912 49.2227 65.896 48.5827 63.656C48.0067 61.416 47.7187 59.144 47.7187 56.84C47.7827 54.472 48.1027 52.2 48.6787 50.024C49.3187 47.848 50.1187 45.896 51.0787 44.168C52.2307 42.12 53.6067 40.424 55.2067 39.08C56.8067 37.736 58.5667 36.936 60.4867 36.68C60.9987 36.552 61.4147 36.68 61.7347 37.064C62.0547 37.448 62.2147 37.896 62.2147 38.408C62.8547 37.768 63.8467 37.288 65.1907 36.968C66.5347 36.648 68.0387 36.616 69.7027 36.872C72.7747 37.256 75.2067 38.184 76.9987 39.656C78.7907 41.128 80.1027 42.856 80.9347 44.84C81.8307 46.76 82.2787 48.808 82.2787 50.984C82.3427 53.096 82.1827 55.016 81.7987 56.744ZM60.8707 43.496C59.5907 44.072 58.5027 44.936 57.6067 46.088C56.7747 47.176 56.0707 48.424 55.4947 49.832C54.9827 51.24 54.6307 52.776 54.4387 54.44C54.3107 56.04 54.3107 57.608 54.4387 59.144C54.6307 61.384 55.3027 63.24 56.4547 64.712C57.6067 66.12 59.3987 66.824 61.8307 66.824C63.2387 66.824 64.6147 66.568 65.9587 66.056C67.3667 65.48 68.6467 64.744 69.7987 63.848C70.9507 62.952 72.0067 61.896 72.9667 60.68C73.9267 59.4 74.6947 58.088 75.2707 56.744C75.5907 56.04 75.8467 55.176 76.0387 54.152C76.2307 53.064 76.2947 51.976 76.2307 50.888C76.1667 49.736 75.9107 48.648 75.4627 47.624C75.0147 46.6 74.3107 45.736 73.3507 45.032C72.0067 44.072 70.4067 43.496 68.5507 43.304C66.6947 43.112 64.7427 43.528 62.6947 44.552C62.3107 44.808 61.8627 44.872 61.3507 44.744C60.9027 44.552 60.7427 44.136 60.8707 43.496ZM115.346 36.104C115.09 36.424 114.61 36.68 113.906 36.872C113.266 37 112.594 36.808 111.89 36.296C111.378 35.912 110.77 35.528 110.066 35.144C109.362 34.696 108.594 34.28 107.762 33.896C106.93 33.512 106.098 33.192 105.266 32.936C104.434 32.68 103.634 32.552 102.866 32.552C101.906 32.552 100.882 32.776 99.7942 33.224C98.7702 33.672 97.8742 34.312 97.1062 35.144C95.6342 36.744 95.0902 38.312 95.4742 39.848C95.9222 41.32 97.0422 42.696 98.8342 43.976C99.9862 44.808 101.234 45.672 102.578 46.568C103.922 47.4 105.234 48.232 106.514 49.064C107.858 49.896 109.106 50.696 110.258 51.464C111.474 52.232 112.53 52.904 113.426 53.48C114.578 54.248 115.666 55.08 116.69 55.976C117.714 56.872 118.61 57.896 119.378 59.048C120.146 60.136 120.754 61.384 121.202 62.792C121.65 64.2 121.874 65.8 121.874 67.592C121.426 71.112 120.018 73.928 117.65 76.04C115.346 78.088 112.658 79.4 109.586 79.976C106.898 80.488 104.242 80.392 101.618 79.688C99.0582 78.984 96.8822 77.64 95.0902 75.656C94.6422 75.144 94.2582 74.44 93.9382 73.544C93.6182 72.648 93.5862 72.008 93.8422 71.624C94.2262 71.048 94.8982 70.664 95.8582 70.472C96.8182 70.216 97.5542 70.248 98.0662 70.568C99.5382 71.912 101.266 72.904 103.25 73.544C105.234 74.12 107.314 74.152 109.49 73.64C111.154 73.256 112.498 72.552 113.522 71.528C114.546 70.44 115.186 69.224 115.442 67.88C115.762 66.472 115.57 65.032 114.866 63.56C114.226 62.024 113.042 60.648 111.314 59.432C108.69 57.448 105.874 55.592 102.866 53.864C99.9222 52.136 96.9142 50.152 93.8422 47.912C92.3702 46.632 91.2822 45.224 90.5782 43.688C89.9382 42.152 89.6182 40.648 89.6182 39.176C89.6182 37.64 89.9382 36.2 90.5782 34.856C91.2182 33.448 92.1142 32.2 93.2662 31.112C94.4182 29.96 95.7622 29.032 97.2982 28.328C98.8342 27.624 100.53 27.208 102.386 27.08C104.946 26.952 107.41 27.496 109.778 28.712C112.146 29.864 114.066 31.304 115.538 33.032C115.858 33.416 115.986 33.896 115.922 34.472C115.922 35.048 115.73 35.592 115.346 36.104ZM162.33 56.744C161.946 58.536 161.242 60.264 160.218 61.928C159.258 63.528 158.138 65.032 156.858 66.44C155.578 67.848 154.17 69.064 152.634 70.088C151.162 71.112 149.658 71.912 148.122 72.488C145.306 73.512 142.49 73.864 139.674 73.544C136.922 73.16 134.458 71.88 132.282 69.704C130.81 67.912 129.754 65.896 129.114 63.656C128.538 61.416 128.25 59.144 128.25 56.84C128.314 54.472 128.634 52.2 129.21 50.024C129.85 47.848 130.65 45.896 131.61 44.168C132.762 42.12 134.138 40.424 135.738 39.08C137.338 37.736 139.098 36.936 141.018 36.68C141.53 36.552 141.946 36.68 142.266 37.064C142.586 37.448 142.746 37.896 142.746 38.408C143.386 37.768 144.378 37.288 145.722 36.968C147.066 36.648 148.57 36.616 150.234 36.872C153.306 37.256 155.738 38.184 157.53 39.656C159.322 41.128 160.634 42.856 161.466 44.84C162.362 46.76 162.81 48.808 162.81 50.984C162.874 53.096 162.714 55.016 162.33 56.744ZM141.402 43.496C140.122 44.072 139.034 44.936 138.138 46.088C137.306 47.176 136.602 48.424 136.026 49.832C135.514 51.24 135.162 52.776 134.97 54.44C134.842 56.04 134.842 57.608 134.97 59.144C135.162 61.384 135.834 63.24 136.986 64.712C138.138 66.12 139.93 66.824 142.362 66.824C143.77 66.824 145.146 66.568 146.49 66.056C147.898 65.48 149.178 64.744 150.33 63.848C151.482 62.952 152.538 61.896 153.498 60.68C154.458 59.4 155.226 58.088 155.802 56.744C156.122 56.04 156.378 55.176 156.57 54.152C156.762 53.064 156.826 51.976 156.762 50.888C156.698 49.736 156.442 48.648 155.994 47.624C155.546 46.6 154.842 45.736 153.882 45.032C152.538 44.072 150.938 43.496 149.082 43.304C147.226 43.112 145.274 43.528 143.226 44.552C142.842 44.808 142.394 44.872 141.882 44.744C141.434 44.552 141.274 44.136 141.402 43.496ZM208.837 67.304C209.541 67.816 210.117 68.616 210.565 69.704C211.013 70.792 210.917 71.784 210.277 72.68C209.381 73.576 208.517 73.992 207.685 73.928C206.853 73.864 206.085 73.544 205.381 72.968C204.677 72.456 203.813 71.816 202.789 71.048C201.829 70.28 200.709 69.416 199.429 68.456C197.957 70.248 196.357 71.72 194.629 72.872C192.965 74.024 191.269 74.888 189.541 75.464C187.813 76.04 186.117 76.328 184.453 76.328C182.853 76.328 181.381 76.072 180.037 75.56C178.437 74.984 177.029 74.088 175.813 72.872C174.597 71.592 173.605 70.184 172.837 68.648C172.069 67.048 171.493 65.384 171.109 63.656C170.725 61.928 170.597 60.264 170.725 58.664C171.045 54.504 172.485 50.6 175.045 46.952C177.669 43.304 180.773 40.36 184.357 38.12C184.997 37.8 185.765 37.576 186.661 37.448C187.621 37.32 188.517 37.384 189.349 37.64C190.117 36.872 191.173 36.232 192.517 35.72C193.797 35.336 195.045 35.304 196.261 35.624C197.541 35.88 198.693 36.36 199.717 37.064C200.805 37.768 201.765 38.6 202.597 39.56C203.429 40.52 204.069 41.48 204.517 42.44C205.669 44.872 206.213 47.912 206.149 51.56C206.149 55.208 205.125 58.984 203.077 62.888C204.037 63.592 204.997 64.328 205.957 65.096C206.917 65.864 207.877 66.6 208.837 67.304ZM189.445 43.016C188.933 43.272 188.421 43.496 187.909 43.688C187.461 43.816 186.981 44.008 186.469 44.264C185.957 44.52 185.413 44.872 184.837 45.32C184.261 45.704 183.685 46.248 183.109 46.952C181.957 48.296 180.933 49.768 180.037 51.368C179.141 52.904 178.469 54.504 178.021 56.168C177.573 57.832 177.381 59.56 177.445 61.352C177.573 63.144 178.053 64.968 178.885 66.824C179.141 67.336 179.589 67.88 180.229 68.456C180.869 69.032 181.637 69.48 182.533 69.8C184.389 70.504 186.373 70.376 188.485 69.416C190.597 68.392 192.581 66.856 194.437 64.808C193.349 64.04 192.261 63.272 191.173 62.504C190.085 61.736 189.029 61 188.005 60.296C187.621 60.04 187.237 59.656 186.853 59.144C186.469 58.632 186.181 58.088 185.989 57.512C185.797 56.872 185.701 56.232 185.701 55.592C185.765 54.952 185.989 54.376 186.373 53.864C186.757 53.352 187.269 53.032 187.909 52.904C188.549 52.712 189.317 52.936 190.213 53.576C191.557 54.536 192.901 55.496 194.245 56.456C195.589 57.352 196.933 58.28 198.277 59.24C199.237 57.32 199.877 55.272 200.197 53.096C200.581 50.92 200.485 48.808 199.909 46.76C199.653 45.864 199.205 45.032 198.565 44.264C197.989 43.432 197.317 42.76 196.549 42.248C195.781 41.736 195.013 41.448 194.245 41.384C193.477 41.256 192.805 41.448 192.229 41.96C191.717 42.472 191.237 42.792 190.789 42.92C190.341 43.048 189.925 43.08 189.541 43.016H189.445ZM231.385 37.832C231.257 38.472 230.809 38.824 230.041 38.888C229.273 38.952 228.633 38.984 228.121 38.984C226.521 39.048 224.857 39.208 223.129 39.464C221.465 39.72 219.705 40.104 217.849 40.616C217.081 40.872 216.249 40.776 215.353 40.328C214.457 39.88 213.913 38.984 213.721 37.64C213.721 37.128 213.913 36.712 214.297 36.392C214.681 36.072 215.129 35.784 215.641 35.528C216.473 35.144 217.465 34.824 218.617 34.568C219.769 34.248 220.921 34.024 222.073 33.896C223.289 33.768 224.441 33.736 225.529 33.8C226.617 33.8 227.513 33.896 228.217 34.088C229.241 34.408 230.041 34.888 230.617 35.528C231.257 36.168 231.513 36.936 231.385 37.832ZM229.177 69.8C229.625 70.824 229.849 71.944 229.849 73.16C229.913 74.312 229.593 75.112 228.889 75.56C227.993 76.136 227.033 76.104 226.009 75.464C224.985 74.824 224.217 73.96 223.705 72.872C223.001 71.528 222.457 69.896 222.073 67.976C221.689 65.992 221.401 64.04 221.209 62.12C221.017 60.2 220.889 58.408 220.825 56.744C220.825 55.08 220.825 53.832 220.825 53C220.889 52.104 221.145 51.272 221.593 50.504C222.041 49.736 222.617 49.288 223.321 49.16C224.473 49.224 225.401 49.768 226.105 50.792C226.809 51.752 227.129 52.968 227.065 54.44C227.065 55.592 227.097 56.872 227.161 58.28C227.225 59.688 227.353 61.096 227.545 62.504C227.737 63.912 227.961 65.288 228.217 66.632C228.473 67.912 228.793 68.968 229.177 69.8ZM244.651 45.32C244.843 46.28 245.035 47.368 245.227 48.584C245.483 49.736 245.739 50.952 245.995 52.232C246.251 53.448 246.475 54.696 246.667 55.976C246.859 57.256 247.019 58.472 247.147 59.624C247.915 57.96 248.747 56.2 249.643 54.344C250.539 52.488 251.499 50.792 252.523 49.256C253.611 47.656 254.731 46.344 255.883 45.32C257.099 44.296 258.411 43.784 259.819 43.784C261.931 43.784 263.691 44.552 265.099 46.088C266.571 47.624 267.787 49.544 268.747 51.848C269.771 54.088 270.571 56.456 271.147 58.952C271.723 61.448 272.203 63.656 272.587 65.576C272.971 67.304 272.203 68.584 270.283 69.416C269.387 69.864 268.715 69.928 268.267 69.608C267.819 69.288 267.563 68.968 267.499 68.648C267.179 67.88 266.763 66.536 266.251 64.616C265.803 62.696 265.259 60.744 264.619 58.76C264.043 56.776 263.371 55.048 262.603 53.576C261.835 52.104 260.971 51.432 260.011 51.56C258.859 51.624 257.835 52.488 256.939 54.152C256.171 55.496 255.371 57 254.539 58.664C253.771 60.264 253.003 61.928 252.235 63.656C251.467 65.32 250.699 67.016 249.931 68.744C249.227 70.408 248.555 71.944 247.915 73.352C247.467 73.8 246.891 74.12 246.187 74.312C245.547 74.44 244.875 74.376 244.171 74.12C243.531 73.928 243.019 73.608 242.635 73.16C242.251 72.712 242.059 72.264 242.059 71.816C241.483 66.824 240.875 62.28 240.235 58.184C239.659 54.088 238.891 49.896 237.931 45.608C237.483 44.136 237.387 42.984 237.643 42.152C237.963 41.256 238.923 40.904 240.523 41.096C242.763 41.48 244.139 42.888 244.651 45.32Z" fill="#FBF4E8"/>
<path d="M94.3754 9.75C97.6901 9.20978 100.309 10.0568 101.18 10.3594C102.368 10.7723 103.395 11.2258 104.024 11.5781C105.3 12.2946 106.536 13.2334 107.578 14.0156L112.758 17.875L117.938 21.8359C122.883 25.5502 125.363 30.8116 126.571 35.4453C127.356 38.4709 127.633 41.787 127.789 45.1953C128.257 44.3402 128.572 43.4844 129.11 42.8594C129.209 42.269 129.253 41.6384 129.414 41.0312C129.597 40.3488 130.194 38.4276 131.547 36.4609C132.592 34.9535 135.436 31.7308 139.977 30.875L145.055 30.9766L145.969 31.0781C146.158 31.0568 146.4 31.1186 146.68 31.0781L152.368 30.2656H156.735C158.291 30.5203 159.984 31.1212 161.61 32.0938C164.761 33.9961 166.456 36.6893 167.297 38.6953C168.644 41.9125 168.521 45.0421 168.414 46.6172L175.93 42.3516C176.076 42.2681 176.276 42.2376 176.438 42.1484V39.7109C176.438 38.4531 176.561 34.1465 180.094 30.4688C184.317 26.088 189.63 26.2512 192.078 26.7109C194.354 27.1404 196.025 28.0658 196.649 28.4375C196.841 28.5529 196.984 28.73 197.157 28.8438C197.217 28.7387 197.296 28.6439 197.36 28.5391C199.566 24.9527 202.774 23.3557 204.469 22.75C206.222 22.1286 207.792 21.9969 208.735 21.9375L213.914 22.2422L220.313 23.1562L226.813 24.0703C228.443 24.3047 230.78 24.7636 233.11 25.8984C235.035 26.8366 238.548 29.1764 240.321 33.7188C248.729 33.7272 256.533 37.9656 262.563 42.5547L282.469 57.7891C284.222 59.123 285.814 60.3956 287.039 61.4453C287.81 62.1051 289.813 63.7991 291.203 65.9141C291.598 66.5142 292.605 68.0158 293.133 70.1797C293.687 72.4735 294.068 77.4563 290.289 81.8594C286.964 85.7273 282.754 86.3153 281.352 86.4297C279.636 86.5696 278.236 86.3468 277.594 86.2266C275.354 85.8039 273.16 84.7749 272.11 84.2969L257.891 77.7969C254.892 76.4314 251.415 75.2923 247.633 73.9375L244.789 75.6641L240.219 78.3047C237.502 79.9058 235.024 81.4133 233.618 82.0625L232.602 82.5703L231.586 82.9766C228.035 84.6095 223.393 84.887 219.196 82.4688C217.838 81.6843 216.875 80.6305 216.047 79.7266V82.4688C216.002 84.0523 215.933 86.5273 215.336 88.7656C215.182 89.3513 214.22 93.0046 210.868 95.875C208.649 97.7702 205.328 99.3083 201.321 99.0234C199.258 98.8724 197.565 98.2795 196.243 97.6016C195.174 97.6971 194.003 97.8961 192.789 97.7031C189.293 97.1386 186.7 95.3176 184.969 93.5391C182.039 90.5264 181.065 86.9329 180.703 85.4141C180.344 83.8987 180.239 82.2915 180.094 80.7422L170.243 80.9453C167.818 80.9863 165.345 80.9446 163.133 80.6406C162.076 80.4946 160.771 80.1848 159.375 79.7266L158.157 84.0938C157.474 86.3463 156.667 88.6359 155.821 90.4922C155.425 91.3583 154.819 92.785 153.789 94.1484C153.265 94.8423 152.327 95.9494 150.946 96.9922C149.581 98.0215 147.028 99.4432 143.532 99.6328C135.171 100.054 131.398 93.4457 130.735 92.1172C129.755 90.1463 129.364 88.2373 129.211 87.3438C128.864 85.2899 128.829 82.9317 128.805 80.7422L128.703 76.8828C128.146 76.9972 127.602 77.087 127.078 77.1875V80.0312C127.005 82.5274 126.892 84.8121 126.672 86.6328C126.572 87.4597 126.368 88.8137 125.961 90.1875C125.772 90.823 125.34 92.1721 124.438 93.6406C123.763 94.7355 120.998 98.8859 115.297 99.8359C108.998 100.871 104.819 97.1517 103.516 95.7734C102.109 94.271 101.367 92.7241 101.078 92.1172C100.44 90.7646 100.067 89.4436 99.8597 88.6641C99.3912 86.8884 98.9357 84.5928 98.5394 82.1641L96.2035 68.1484L93.9691 54.0312C93.2428 49.5795 92.4949 46.1067 91.8363 43.5703C91.1945 41.1059 90.7668 40.1258 90.7191 40.0156L88.1801 35.6484L85.7426 31.2812C85.2417 30.4042 84.1616 28.5391 83.6097 26.3047C83.3785 25.3664 82.7232 22.4005 83.8129 18.8906C84.4525 16.857 85.7117 14.536 87.8754 12.6953C90.0251 10.8749 92.467 10.068 94.3754 9.75ZM76.1957 30.2656C77.7542 30.5198 79.4419 31.1196 81.0707 32.0938C84.2259 33.9963 85.9168 36.688 86.7582 38.6953C88.1995 42.1359 87.988 45.4742 87.8754 46.9219C87.8392 47.3807 87.5313 47.8617 87.4691 48.3438C89.4855 50.9215 91.578 54.8475 90.2113 59.9219C88.9547 64.5398 85.689 66.9639 84.7269 67.6406C83.9868 68.1603 83.0389 68.2879 82.2894 68.6562L81.4769 71.6016L77.6176 84.0938C76.9356 86.3433 76.2286 88.6374 75.3832 90.4922C74.9889 91.3565 74.2911 92.7702 73.2504 94.1484C72.7248 94.8434 71.7885 95.9502 70.4066 96.9922C69.0405 98.0222 66.4925 99.445 62.9926 99.6328C54.6319 100.054 50.8594 93.4457 50.1957 92.1172C49.2175 90.1475 48.9263 88.2369 48.7738 87.3438C48.4244 85.2863 48.2895 82.9372 48.266 80.7422L48.1644 80.0312C46.332 83.4032 43.7372 85.4075 41.6644 86.4297C37.8784 88.2915 33.7396 88.4608 31.2035 88.4609H18.2035C14.7085 88.4609 8.2314 87.72 3.68005 82.1641C-1.05139 76.3756 -0.21141 69.6878 0.734741 66.1172L2.25818 60.125L3.88318 54.1328C4.57484 51.5244 6.55228 45.1898 12.9222 42.0469C16.7663 40.1565 20.4065 40.2777 23.3832 41.0312L30.0863 44.1797L38.4144 50.4766L38.516 50.5781L46.0316 47.3281C46.6494 45.4122 47.5913 43.8837 48.5707 42.7578C48.6675 42.1962 48.8234 41.6065 48.9769 41.0312C49.1637 40.3332 49.6674 38.4098 51.0082 36.4609C52.0507 34.9559 54.8978 31.7336 59.4379 30.875L64.516 30.9766L65.4301 31.0781C65.6182 31.057 65.8605 31.1186 66.141 31.0781L71.8285 30.2656H76.1957Z" fill="#D00C1C"/>
<path d="M11.6954 75.464C11.5034 73.096 11.3434 70.408 11.2154 67.4C11.1514 64.392 11.1194 61.32 11.1194 58.184C11.1194 54.984 11.1194 51.848 11.1194 48.776C11.1834 45.704 11.2794 42.92 11.4074 40.424C11.4074 39.784 11.6954 39.304 12.2714 38.984C12.9114 38.6 13.4234 38.44 13.8074 38.504C14.9594 38.632 15.7274 39.048 16.1114 39.752C16.5594 40.392 16.8474 41.32 16.9754 42.536C16.9114 44.584 16.8474 46.632 16.7834 48.68C16.7834 50.728 16.8154 52.776 16.8794 54.824C19.7594 54.312 22.1594 53.256 24.0794 51.656C26.0634 50.056 27.4714 48.232 28.3034 46.184C28.6234 45.416 28.8474 44.488 28.9754 43.4C29.1674 42.312 29.1994 41.224 29.0714 40.136C28.9434 38.984 28.6234 37.928 28.1114 36.968C27.6634 35.944 26.9594 35.144 25.9994 34.568C24.5914 33.736 23.0554 33.288 21.3914 33.224C19.7274 33.16 17.9994 33.416 16.2074 33.992C14.4794 34.504 12.7514 35.336 11.0234 36.488C9.35943 37.64 7.79143 39.016 6.31943 40.616C6.51143 41.576 6.38343 42.44 5.93543 43.208C5.48743 43.912 4.84743 44.424 4.01543 44.744C3.50343 44.872 2.89543 44.616 2.19143 43.976C1.48743 43.272 1.13543 42.568 1.13543 41.864C1.13543 39.304 1.83943 37.096 3.24743 35.24C4.71943 33.32 6.54343 31.72 8.71943 30.44C10.8954 29.16 13.2314 28.2 15.7274 27.56C18.2234 26.92 20.5274 26.6 22.6394 26.6C25.7754 26.6 28.3994 27.528 30.5114 29.384C32.6234 31.176 34.0634 33.448 34.8314 36.2C36.1754 41 35.8234 45.32 33.7754 49.16C31.7914 53 28.5274 56.328 23.9834 59.144C27.3114 61.192 30.4154 63.144 33.2954 65C36.2394 66.856 39.1834 68.872 42.1274 71.048C42.5114 71.432 42.9274 72.008 43.3754 72.776C43.8874 73.48 43.8234 74.568 43.1834 76.04C42.7994 76.936 42.1274 77.448 41.1674 77.576C40.2714 77.64 39.3754 77.352 38.4794 76.712C37.0714 75.56 35.4714 74.376 33.6794 73.16C31.9514 71.88 30.1274 70.632 28.2074 69.416C26.2874 68.136 24.3674 66.92 22.4474 65.768C20.5274 64.552 18.7034 63.432 16.9754 62.408C17.0394 64.968 17.0714 67.528 17.0714 70.088C17.1354 72.584 17.2314 75.048 17.3594 77.48C17.3594 78.376 17.1034 79.016 16.5914 79.4C16.0794 79.72 15.4394 79.88 14.6714 79.88C14.2874 79.816 13.9354 79.624 13.6154 79.304C13.2954 78.92 12.9754 78.504 12.6554 78.056C12.3994 77.544 12.1754 77.064 11.9834 76.616C11.7914 76.104 11.6954 75.72 11.6954 75.464ZM81.7987 56.744C81.4147 58.536 80.7107 60.264 79.6867 61.928C78.7267 63.528 77.6067 65.032 76.3267 66.44C75.0467 67.848 73.6387 69.064 72.1027 70.088C70.6307 71.112 69.1267 71.912 67.5907 72.488C64.7747 73.512 61.9587 73.864 59.1427 73.544C56.3907 73.16 53.9267 71.88 51.7507 69.704C50.2787 67.912 49.2227 65.896 48.5827 63.656C48.0067 61.416 47.7187 59.144 47.7187 56.84C47.7827 54.472 48.1027 52.2 48.6787 50.024C49.3187 47.848 50.1187 45.896 51.0787 44.168C52.2307 42.12 53.6067 40.424 55.2067 39.08C56.8067 37.736 58.5667 36.936 60.4867 36.68C60.9987 36.552 61.4147 36.68 61.7347 37.064C62.0547 37.448 62.2147 37.896 62.2147 38.408C62.8547 37.768 63.8467 37.288 65.1907 36.968C66.5347 36.648 68.0387 36.616 69.7027 36.872C72.7747 37.256 75.2067 38.184 76.9987 39.656C78.7907 41.128 80.1027 42.856 80.9347 44.84C81.8307 46.76 82.2787 48.808 82.2787 50.984C82.3427 53.096 82.1827 55.016 81.7987 56.744ZM60.8707 43.496C59.5907 44.072 58.5027 44.936 57.6067 46.088C56.7747 47.176 56.0707 48.424 55.4947 49.832C54.9827 51.24 54.6307 52.776 54.4387 54.44C54.3107 56.04 54.3107 57.608 54.4387 59.144C54.6307 61.384 55.3027 63.24 56.4547 64.712C57.6067 66.12 59.3987 66.824 61.8307 66.824C63.2387 66.824 64.6147 66.568 65.9587 66.056C67.3667 65.48 68.6467 64.744 69.7987 63.848C70.9507 62.952 72.0067 61.896 72.9667 60.68C73.9267 59.4 74.6947 58.088 75.2707 56.744C75.5907 56.04 75.8467 55.176 76.0387 54.152C76.2307 53.064 76.2947 51.976 76.2307 50.888C76.1667 49.736 75.9107 48.648 75.4627 47.624C75.0147 46.6 74.3107 45.736 73.3507 45.032C72.0067 44.072 70.4067 43.496 68.5507 43.304C66.6947 43.112 64.7427 43.528 62.6947 44.552C62.3107 44.808 61.8627 44.872 61.3507 44.744C60.9027 44.552 60.7427 44.136 60.8707 43.496ZM115.346 36.104C115.09 36.424 114.61 36.68 113.906 36.872C113.266 37 112.594 36.808 111.89 36.296C111.378 35.912 110.77 35.528 110.066 35.144C109.362 34.696 108.594 34.28 107.762 33.896C106.93 33.512 106.098 33.192 105.266 32.936C104.434 32.68 103.634 32.552 102.866 32.552C101.906 32.552 100.882 32.776 99.7942 33.224C98.7702 33.672 97.8742 34.312 97.1062 35.144C95.6342 36.744 95.0902 38.312 95.4742 39.848C95.9222 41.32 97.0422 42.696 98.8342 43.976C99.9862 44.808 101.234 45.672 102.578 46.568C103.922 47.4 105.234 48.232 106.514 49.064C107.858 49.896 109.106 50.696 110.258 51.464C111.474 52.232 112.53 52.904 113.426 53.48C114.578 54.248 115.666 55.08 116.69 55.976C117.714 56.872 118.61 57.896 119.378 59.048C120.146 60.136 120.754 61.384 121.202 62.792C121.65 64.2 121.874 65.8 121.874 67.592C121.426 71.112 120.018 73.928 117.65 76.04C115.346 78.088 112.658 79.4 109.586 79.976C106.898 80.488 104.242 80.392 101.618 79.688C99.0582 78.984 96.8822 77.64 95.0902 75.656C94.6422 75.144 94.2582 74.44 93.9382 73.544C93.6182 72.648 93.5862 72.008 93.8422 71.624C94.2262 71.048 94.8982 70.664 95.8582 70.472C96.8182 70.216 97.5542 70.248 98.0662 70.568C99.5382 71.912 101.266 72.904 103.25 73.544C105.234 74.12 107.314 74.152 109.49 73.64C111.154 73.256 112.498 72.552 113.522 71.528C114.546 70.44 115.186 69.224 115.442 67.88C115.762 66.472 115.57 65.032 114.866 63.56C114.226 62.024 113.042 60.648 111.314 59.432C108.69 57.448 105.874 55.592 102.866 53.864C99.9222 52.136 96.9142 50.152 93.8422 47.912C92.3702 46.632 91.2822 45.224 90.5782 43.688C89.9382 42.152 89.6182 40.648 89.6182 39.176C89.6182 37.64 89.9382 36.2 90.5782 34.856C91.2182 33.448 92.1142 32.2 93.2662 31.112C94.4182 29.96 95.7622 29.032 97.2982 28.328C98.8342 27.624 100.53 27.208 102.386 27.08C104.946 26.952 107.41 27.496 109.778 28.712C112.146 29.864 114.066 31.304 115.538 33.032C115.858 33.416 115.986 33.896 115.922 34.472C115.922 35.048 115.73 35.592 115.346 36.104ZM162.33 56.744C161.946 58.536 161.242 60.264 160.218 61.928C159.258 63.528 158.138 65.032 156.858 66.44C155.578 67.848 154.17 69.064 152.634 70.088C151.162 71.112 149.658 71.912 148.122 72.488C145.306 73.512 142.49 73.864 139.674 73.544C136.922 73.16 134.458 71.88 132.282 69.704C130.81 67.912 129.754 65.896 129.114 63.656C128.538 61.416 128.25 59.144 128.25 56.84C128.314 54.472 128.634 52.2 129.21 50.024C129.85 47.848 130.65 45.896 131.61 44.168C132.762 42.12 134.138 40.424 135.738 39.08C137.338 37.736 139.098 36.936 141.018 36.68C141.53 36.552 141.946 36.68 142.266 37.064C142.586 37.448 142.746 37.896 142.746 38.408C143.386 37.768 144.378 37.288 145.722 36.968C147.066 36.648 148.57 36.616 150.234 36.872C153.306 37.256 155.738 38.184 157.53 39.656C159.322 41.128 160.634 42.856 161.466 44.84C162.362 46.76 162.81 48.808 162.81 50.984C162.874 53.096 162.714 55.016 162.33 56.744ZM141.402 43.496C140.122 44.072 139.034 44.936 138.138 46.088C137.306 47.176 136.602 48.424 136.026 49.832C135.514 51.24 135.162 52.776 134.97 54.44C134.842 56.04 134.842 57.608 134.97 59.144C135.162 61.384 135.834 63.24 136.986 64.712C138.138 66.12 139.93 66.824 142.362 66.824C143.77 66.824 145.146 66.568 146.49 66.056C147.898 65.48 149.178 64.744 150.33 63.848C151.482 62.952 152.538 61.896 153.498 60.68C154.458 59.4 155.226 58.088 155.802 56.744C156.122 56.04 156.378 55.176 156.57 54.152C156.762 53.064 156.826 51.976 156.762 50.888C156.698 49.736 156.442 48.648 155.994 47.624C155.546 46.6 154.842 45.736 153.882 45.032C152.538 44.072 150.938 43.496 149.082 43.304C147.226 43.112 145.274 43.528 143.226 44.552C142.842 44.808 142.394 44.872 141.882 44.744C141.434 44.552 141.274 44.136 141.402 43.496ZM208.837 67.304C209.541 67.816 210.117 68.616 210.565 69.704C211.013 70.792 210.917 71.784 210.277 72.68C209.381 73.576 208.517 73.992 207.685 73.928C206.853 73.864 206.085 73.544 205.381 72.968C204.677 72.456 203.813 71.816 202.789 71.048C201.829 70.28 200.709 69.416 199.429 68.456C197.957 70.248 196.357 71.72 194.629 72.872C192.965 74.024 191.269 74.888 189.541 75.464C187.813 76.04 186.117 76.328 184.453 76.328C182.853 76.328 181.381 76.072 180.037 75.56C178.437 74.984 177.029 74.088 175.813 72.872C174.597 71.592 173.605 70.184 172.837 68.648C172.069 67.048 171.493 65.384 171.109 63.656C170.725 61.928 170.597 60.264 170.725 58.664C171.045 54.504 172.485 50.6 175.045 46.952C177.669 43.304 180.773 40.36 184.357 38.12C184.997 37.8 185.765 37.576 186.661 37.448C187.621 37.32 188.517 37.384 189.349 37.64C190.117 36.872 191.173 36.232 192.517 35.72C193.797 35.336 195.045 35.304 196.261 35.624C197.541 35.88 198.693 36.36 199.717 37.064C200.805 37.768 201.765 38.6 202.597 39.56C203.429 40.52 204.069 41.48 204.517 42.44C205.669 44.872 206.213 47.912 206.149 51.56C206.149 55.208 205.125 58.984 203.077 62.888C204.037 63.592 204.997 64.328 205.957 65.096C206.917 65.864 207.877 66.6 208.837 67.304ZM189.445 43.016C188.933 43.272 188.421 43.496 187.909 43.688C187.461 43.816 186.981 44.008 186.469 44.264C185.957 44.52 185.413 44.872 184.837 45.32C184.261 45.704 183.685 46.248 183.109 46.952C181.957 48.296 180.933 49.768 180.037 51.368C179.141 52.904 178.469 54.504 178.021 56.168C177.573 57.832 177.381 59.56 177.445 61.352C177.573 63.144 178.053 64.968 178.885 66.824C179.141 67.336 179.589 67.88 180.229 68.456C180.869 69.032 181.637 69.48 182.533 69.8C184.389 70.504 186.373 70.376 188.485 69.416C190.597 68.392 192.581 66.856 194.437 64.808C193.349 64.04 192.261 63.272 191.173 62.504C190.085 61.736 189.029 61 188.005 60.296C187.621 60.04 187.237 59.656 186.853 59.144C186.469 58.632 186.181 58.088 185.989 57.512C185.797 56.872 185.701 56.232 185.701 55.592C185.765 54.952 185.989 54.376 186.373 53.864C186.757 53.352 187.269 53.032 187.909 52.904C188.549 52.712 189.317 52.936 190.213 53.576C191.557 54.536 192.901 55.496 194.245 56.456C195.589 57.352 196.933 58.28 198.277 59.24C199.237 57.32 199.877 55.272 200.197 53.096C200.581 50.92 200.485 48.808 199.909 46.76C199.653 45.864 199.205 45.032 198.565 44.264C197.989 43.432 197.317 42.76 196.549 42.248C195.781 41.736 195.013 41.448 194.245 41.384C193.477 41.256 192.805 41.448 192.229 41.96C191.717 42.472 191.237 42.792 190.789 42.92C190.341 43.048 189.925 43.08 189.541 43.016H189.445ZM231.385 37.832C231.257 38.472 230.809 38.824 230.041 38.888C229.273 38.952 228.633 38.984 228.121 38.984C226.521 39.048 224.857 39.208 223.129 39.464C221.465 39.72 219.705 40.104 217.849 40.616C217.081 40.872 216.249 40.776 215.353 40.328C214.457 39.88 213.913 38.984 213.721 37.64C213.721 37.128 213.913 36.712 214.297 36.392C214.681 36.072 215.129 35.784 215.641 35.528C216.473 35.144 217.465 34.824 218.617 34.568C219.769 34.248 220.921 34.024 222.073 33.896C223.289 33.768 224.441 33.736 225.529 33.8C226.617 33.8 227.513 33.896 228.217 34.088C229.241 34.408 230.041 34.888 230.617 35.528C231.257 36.168 231.513 36.936 231.385 37.832ZM229.177 69.8C229.625 70.824 229.849 71.944 229.849 73.16C229.913 74.312 229.593 75.112 228.889 75.56C227.993 76.136 227.033 76.104 226.009 75.464C224.985 74.824 224.217 73.96 223.705 72.872C223.001 71.528 222.457 69.896 222.073 67.976C221.689 65.992 221.401 64.04 221.209 62.12C221.017 60.2 220.889 58.408 220.825 56.744C220.825 55.08 220.825 53.832 220.825 53C220.889 52.104 221.145 51.272 221.593 50.504C222.041 49.736 222.617 49.288 223.321 49.16C224.473 49.224 225.401 49.768 226.105 50.792C226.809 51.752 227.129 52.968 227.065 54.44C227.065 55.592 227.097 56.872 227.161 58.28C227.225 59.688 227.353 61.096 227.545 62.504C227.737 63.912 227.961 65.288 228.217 66.632C228.473 67.912 228.793 68.968 229.177 69.8ZM244.651 45.32C244.843 46.28 245.035 47.368 245.227 48.584C245.483 49.736 245.739 50.952 245.995 52.232C246.251 53.448 246.475 54.696 246.667 55.976C246.859 57.256 247.019 58.472 247.147 59.624C247.915 57.96 248.747 56.2 249.643 54.344C250.539 52.488 251.499 50.792 252.523 49.256C253.611 47.656 254.731 46.344 255.883 45.32C257.099 44.296 258.411 43.784 259.819 43.784C261.931 43.784 263.691 44.552 265.099 46.088C266.571 47.624 267.787 49.544 268.747 51.848C269.771 54.088 270.571 56.456 271.147 58.952C271.723 61.448 272.203 63.656 272.587 65.576C272.971 67.304 272.203 68.584 270.283 69.416C269.387 69.864 268.715 69.928 268.267 69.608C267.819 69.288 267.563 68.968 267.499 68.648C267.179 67.88 266.763 66.536 266.251 64.616C265.803 62.696 265.259 60.744 264.619 58.76C264.043 56.776 263.371 55.048 262.603 53.576C261.835 52.104 260.971 51.432 260.011 51.56C258.859 51.624 257.835 52.488 256.939 54.152C256.171 55.496 255.371 57 254.539 58.664C253.771 60.264 253.003 61.928 252.235 63.656C251.467 65.32 250.699 67.016 249.931 68.744C249.227 70.408 248.555 71.944 247.915 73.352C247.467 73.8 246.891 74.12 246.187 74.312C245.547 74.44 244.875 74.376 244.171 74.12C243.531 73.928 243.019 73.608 242.635 73.16C242.251 72.712 242.059 72.264 242.059 71.816C241.483 66.824 240.875 62.28 240.235 58.184C239.659 54.088 238.891 49.896 237.931 45.608C237.483 44.136 237.387 42.984 237.643 42.152C237.963 41.256 238.923 40.904 240.523 41.096C242.763 41.48 244.139 42.888 244.651 45.32Z" fill="#FBF4E8"/>
</svg>
